<svg width="269" height="99" viewBox="0 0 269 99" fill="none" xmlns="http://www.w3.org/2000/svg">
<mask id="mask0_196_635" style="mask-type:luminance" maskUnits="userSpaceOnUse" x="0" y="45" width="268" height="54">
<path d="M0.0693359 45.3862H267.94V98.9999H0.0693359V45.3862Z" fill="#FFFFFE"/>
</mask>
<g mask="url(#mask0_196_635)">
<path fill-rule="evenodd" clip-rule="evenodd" d="M106.54 63.2393C90.1366 63.2393 75.4077 62.9218 62.4934 62.2868C48.626 61.6052 36.7088 60.5435 27.07 59.1314C16.0897 57.5235 7.99768 55.49 2.33244 52.9148C0.316103 51.9988 -0.560466 49.6535 0.372918 47.6758C1.3063 45.6969 3.696 44.8367 5.71234 45.7527C19.6598 52.0921 54.159 55.3489 106.451 55.3489C119.469 55.3489 133.584 55.1475 148.767 54.7412C206.274 53.2027 260.65 49.1437 263.47 48.849C265.674 48.6055 267.663 50.161 267.913 52.3254C268.165 54.4909 266.579 56.4458 264.372 56.6916C263.55 56.7838 249.882 57.8546 228.331 59.1359C209.304 60.2693 180.15 61.7918 149.308 62.6225C134.015 63.0345 119.736 63.2393 106.54 63.2393Z" fill="#0066CC"/>
</g>
<mask id="mask1_196_635" style="mask-type:luminance" maskUnits="userSpaceOnUse" x="0" y="45" width="268" height="54">
<path d="M0.0693359 45.3862H267.94V98.9999H0.0693359V45.3862Z" fill="#FFFFFE"/>
</mask>
<g mask="url(#mask1_196_635)">
<path fill-rule="evenodd" clip-rule="evenodd" d="M30.8201 98.9999C25.3067 98.9999 20.0682 98.1863 16.8669 96.8037C15.5717 96.245 14.6789 95.0934 14.4772 93.7211C14.2766 92.3533 14.8007 91.0048 15.879 90.1138C16.308 89.7599 16.7509 89.5153 17.7214 88.9805C20.4566 87.4738 26.8628 83.9462 31.7291 78.5149C37.4338 72.1459 38.948 65.5687 36.3601 58.4088L43.9396 55.7688C45.8945 61.1785 46.1438 66.5382 44.6782 71.6998C43.4886 75.8897 41.1638 79.9362 37.77 83.7255C35.1334 86.6682 32.1338 89.1307 29.3846 91.0856C30.2914 91.1129 31.2352 91.1152 32.2091 91.0868C36.9132 90.9491 43.9732 90.0569 50.8896 86.584C61.1985 81.4087 67.854 72.2267 70.6703 59.293L78.5351 60.943C76.7704 69.045 73.6143 76.0376 69.1526 81.7261C65.2451 86.7103 60.3324 90.709 54.5524 93.6107C46.3026 97.7528 37.9787 98.8156 32.448 98.976C31.9042 98.992 31.3604 98.9999 30.8201 98.9999Z" fill="#0066CC"/>
</g>
<path fill-rule="evenodd" clip-rule="evenodd" d="M29.0554 8.78017C27.8426 8.12928 26.6089 7.59103 25.3532 7.16545C24.0963 6.741 22.9195 6.52707 21.8226 6.52707C20.466 6.52707 19.3981 6.79676 18.6189 7.335C17.8386 7.87438 17.449 8.68117 17.449 9.75765C17.449 10.495 17.7447 11.1539 18.3372 11.7342C18.9285 12.3157 19.6938 12.8323 20.6318 13.2852C21.5698 13.7393 22.5438 14.1501 23.5549 14.5176C24.479 14.8579 25.3961 15.2618 26.3051 15.7295C27.2153 16.1972 28.0305 16.7787 28.7517 17.4728C29.4729 18.167 30.0514 19.0307 30.4839 20.065C30.9176 21.0994 31.1344 22.3671 31.1344 23.8691C31.1344 25.4566 30.7158 26.929 29.8775 28.2889C29.0404 29.6487 27.8136 30.7479 26.1973 31.5832C24.5798 32.4184 22.5878 32.8372 20.2202 32.8372C19.0074 32.8372 17.7737 32.7166 16.518 32.4753C15.2611 32.2352 14.0274 31.8665 12.8157 31.3704C11.6029 30.8754 10.433 30.2438 9.30713 29.4791L12.0783 24.6759C12.8296 25.2153 13.6448 25.6898 14.526 26.1006C15.406 26.5114 16.2942 26.83 17.1893 27.0565C18.0833 27.2841 18.9065 27.3967 19.6578 27.3967C20.408 27.3967 21.1663 27.2909 21.9316 27.0781C22.6957 26.8653 23.3311 26.5046 23.8366 25.9937C24.341 25.4839 24.5949 24.7761 24.5949 23.8691C24.5949 23.2456 24.385 22.6789 23.9665 22.1691C23.5479 21.6581 22.9844 21.1916 22.2771 20.766C21.5698 20.3416 20.7976 19.9729 19.9605 19.6611C18.9784 19.2935 17.9685 18.8679 16.9296 18.3854C15.8895 17.9052 14.9155 17.3169 14.0054 16.6228C13.0963 15.9287 12.36 15.0638 11.7977 14.0294C11.2342 12.9962 10.9524 11.7274 10.9524 10.2253C10.9524 8.41262 11.3641 6.84 12.1873 5.50748C13.0105 4.1761 14.1723 3.12124 15.6727 2.34176C17.1742 1.56228 18.9065 1.12986 20.8695 1.04565C23.4401 1.04565 25.526 1.34265 27.1284 1.93779C28.7308 2.53293 30.1662 3.24072 31.437 4.06231L29.0554 8.78017Z" fill="#0066CC"/>
<path fill-rule="evenodd" clip-rule="evenodd" d="M41.8306 16.8982C41.8306 18.2865 42.0822 19.5837 42.5889 20.7877C43.0932 21.9916 43.8017 23.0544 44.7107 23.975C45.6198 24.8967 46.6737 25.6113 47.8715 26.1211C49.0704 26.6309 50.3771 26.887 51.7905 26.887C53.1483 26.887 54.411 26.6309 55.5809 26.1211C56.7508 25.6113 57.7677 24.8967 58.6338 23.975C59.4999 23.0544 60.1782 21.9916 60.6698 20.7877C61.1591 19.5837 61.405 18.2865 61.405 16.8982C61.405 15.4815 61.1533 14.1638 60.6478 12.9462C60.1411 11.7274 59.4501 10.6578 58.5689 9.73721C57.6877 8.81662 56.6569 8.10086 55.4719 7.59107C54.2892 7.08014 53.0033 6.82524 51.6178 6.82524C50.2322 6.82524 48.9475 7.08014 47.7636 7.59107C46.5798 8.10086 45.5409 8.81662 44.6458 9.73721C43.7507 10.6578 43.0573 11.7274 42.5668 12.9462C42.0752 14.1638 41.8306 15.4815 41.8306 16.8982ZM35.334 16.8982C35.334 14.7452 35.7526 12.7049 36.5909 10.7784C37.428 8.85076 38.5898 7.14386 40.0774 5.65659C41.5627 4.16931 43.288 2.99952 45.2522 2.14948C47.2152 1.29945 49.322 0.875 51.5749 0.875C53.7976 0.875 55.8905 1.29945 57.8546 2.14948C59.8176 2.99952 61.5568 4.16931 63.0734 5.65659C64.5877 7.14386 65.7727 8.85076 66.6238 10.7784C67.476 12.7049 67.9015 14.7452 67.9015 16.8982C67.9015 19.1092 67.476 21.1768 66.6238 23.1033C65.7727 25.031 64.5877 26.7231 63.0734 28.1831C61.5568 29.6419 59.8176 30.7821 57.8546 31.6048C55.8905 32.4264 53.7976 32.8372 51.5749 32.8372C49.322 32.8372 47.2152 32.4264 45.2522 31.6048C43.288 30.7821 41.5627 29.6419 40.0774 28.1831C38.5898 26.7231 37.428 25.031 36.5909 23.1033C35.7526 21.1768 35.334 19.1092 35.334 16.8982Z" fill="#0066CC"/>
<path fill-rule="evenodd" clip-rule="evenodd" d="M79.8105 20.9368C79.8105 21.928 80.1143 22.877 80.7207 23.7839C81.3271 24.6908 82.1272 25.4271 83.1243 25.9938C84.1203 26.5605 85.2102 26.8438 86.3929 26.8438C87.6927 26.8438 88.8464 26.5605 89.8574 25.9938C90.8685 25.4271 91.6697 24.6908 92.2622 23.7839C92.8524 22.877 93.1492 21.928 93.1492 20.9368V1.21533H99.342V21.0631C99.342 23.3583 98.7646 25.393 97.6097 27.1624C96.4549 28.9342 94.8954 30.3225 92.9335 31.3284C90.9694 32.3343 88.7896 32.8373 86.3929 32.8373C84.0252 32.8373 81.8686 32.3343 79.9195 31.3284C77.9693 30.3225 76.4179 28.9342 75.263 27.1624C74.1082 25.393 73.5308 23.3583 73.5308 21.0631V1.21533H79.8105V20.9368Z" fill="#0066CC"/>
<path fill-rule="evenodd" clip-rule="evenodd" d="M106.92 1.21533H113.2V26.5468H128.185V32.4971H106.92V1.21533Z" fill="#0066CC"/>
<path fill-rule="evenodd" clip-rule="evenodd" d="M166.65 8.78017C165.437 8.12928 164.203 7.59103 162.946 7.16545C161.691 6.741 160.514 6.52707 159.417 6.52707C158.059 6.52707 156.991 6.79676 156.212 7.335C155.432 7.87438 155.042 8.68117 155.042 9.75765C155.042 10.495 155.338 11.1539 155.93 11.7342C156.523 12.3157 157.288 12.8323 158.225 13.2852C159.164 13.7393 160.138 14.1501 161.149 14.5176C162.073 14.8579 162.99 15.2618 163.899 15.7295C164.808 16.1972 165.624 16.7787 166.346 17.4728C167.067 18.167 167.645 19.0307 168.078 20.065C168.511 21.0994 168.727 22.3671 168.727 23.8691C168.727 25.4566 168.309 26.929 167.472 28.2889C166.633 29.6487 165.408 30.7479 163.79 31.5832C162.174 32.4184 160.182 32.8372 157.814 32.8372C156.602 32.8372 155.367 32.7166 154.111 32.4753C152.855 32.2352 151.622 31.8665 150.409 31.3704C149.196 30.8754 148.026 30.2438 146.901 29.4791L149.673 24.6759C150.423 25.2153 151.238 25.6898 152.12 26.1006C152.999 26.5114 153.887 26.83 154.784 27.0565C155.677 27.2841 156.501 27.3967 157.251 27.3967C158.002 27.3967 158.759 27.2909 159.525 27.0781C160.29 26.8653 160.924 26.5046 161.431 25.9937C161.935 25.4839 162.188 24.7761 162.188 23.8691C162.188 23.2456 161.979 22.6789 161.56 22.1691C161.142 21.6581 160.579 21.1916 159.871 20.766C159.164 20.3416 158.392 19.9729 157.555 19.6611C156.571 19.2935 155.562 18.8679 154.523 18.3854C153.483 17.9052 152.51 17.3169 151.6 16.6228C150.689 15.9287 149.953 15.0638 149.391 14.0294C148.828 12.9962 148.547 11.7274 148.547 10.2253C148.547 8.41262 148.958 6.84 149.78 5.50748C150.604 4.1761 151.765 3.12124 153.267 2.34176C154.768 1.56228 156.501 1.12986 158.464 1.04565C161.033 1.04565 163.119 1.34265 164.723 1.93779C166.325 2.53293 167.76 3.24072 169.031 4.06231L166.65 8.78017Z" fill="#0066CC"/>
<path fill-rule="evenodd" clip-rule="evenodd" d="M180.507 20.9368C180.507 21.928 180.811 22.877 181.416 23.7839C182.023 24.6908 182.825 25.4271 183.819 25.9938C184.817 26.5605 185.905 26.8438 187.09 26.8438C188.389 26.8438 189.544 26.5605 190.555 25.9938C191.565 25.4271 192.366 24.6908 192.957 23.7839C193.55 22.877 193.846 21.928 193.846 20.9368V1.21533H200.039V21.0631C200.039 23.3583 199.461 25.393 198.307 27.1624C197.152 28.9342 195.593 30.3225 193.629 31.3284C191.666 32.3343 189.486 32.8373 187.09 32.8373C184.723 32.8373 182.564 32.3343 180.616 31.3284C178.667 30.3225 177.114 28.9342 175.959 27.1624C174.804 25.393 174.227 23.3583 174.227 21.0631V1.21533H180.507V20.9368Z" fill="#0066CC"/>
<path fill-rule="evenodd" clip-rule="evenodd" d="M217.275 1.21533C219.267 1.21533 221.043 1.4634 222.602 1.9584C224.16 2.45454 225.467 3.16347 226.522 4.08406C227.575 5.00578 228.376 6.10957 228.925 7.39885C229.474 8.68926 229.748 10.1401 229.748 11.756C229.748 13.0305 229.553 14.3061 229.163 15.5817C228.774 16.8562 228.137 18.018 227.257 19.0661C226.576 19.8768 225.727 20.565 224.709 21.1306L232.13 32.4971H224.81L218.08 22.5515H213.897V32.4971H207.618V1.21533H217.275ZM218.401 7.16557H213.897V16.6013H218.358C219.311 16.6013 220.104 16.4454 220.74 16.1336C221.374 15.8218 221.872 15.4258 222.233 14.9433C222.595 14.462 222.854 13.959 223.013 13.4344C223.172 12.911 223.251 12.4217 223.251 11.9688C223.251 11.6285 223.2 11.1973 223.099 10.6715C222.999 10.1481 222.789 9.61668 222.472 9.07844C222.154 8.54019 221.671 8.08616 221.02 7.71747C220.372 7.34992 219.498 7.16557 218.401 7.16557Z" fill="#0066CC"/>
<path fill-rule="evenodd" clip-rule="evenodd" d="M237.326 1.21533H257.248V7.16557H243.606V14.2628H255.428V20.2131H243.606V32.4971H237.326V1.21533Z" fill="#0066CC"/>
</svg>
