<svg width="87" height="32" viewBox="0 0 87 32" fill="none" xmlns="http://www.w3.org/2000/svg">
<g clip-path="url(#clip0_140_76)">
<mask id="mask0_140_76" style="mask-type:luminance" maskUnits="userSpaceOnUse" x="0" y="14" width="87" height="18">
<path d="M0.0224609 14.6704H86.6571V32.0001H0.0224609V14.6704Z" fill="#FFFFFE"/>
</mask>
<g mask="url(#mask0_140_76)">
<path fill-rule="evenodd" clip-rule="evenodd" d="M34.4573 20.4411C29.1521 20.4411 24.3885 20.3385 20.2118 20.1332C15.7268 19.9129 11.8725 19.5697 8.75514 19.1133C5.20389 18.5936 2.58677 17.9363 0.754517 17.1039C0.102392 16.8078 -0.181108 16.0497 0.120767 15.4105C0.422642 14.7708 1.19552 14.4928 1.84764 14.7889C6.35852 16.838 17.5163 17.8907 34.4284 17.8907C38.6389 17.8907 43.2038 17.8256 48.1144 17.6942C66.7133 17.197 84.2997 15.885 85.2116 15.7897C85.9245 15.711 86.5676 16.2138 86.6487 16.9134C86.73 17.6133 86.217 18.2452 85.5034 18.3247C85.2375 18.3545 80.817 18.7006 73.8469 19.1147C67.6931 19.4811 58.2641 19.9732 48.2895 20.2417C43.3433 20.3749 38.7251 20.4411 34.4573 20.4411Z" fill="#FFFFFE"/>
</g>
<mask id="mask1_140_76" style="mask-type:luminance" maskUnits="userSpaceOnUse" x="0" y="14" width="87" height="18">
<path d="M0.0224609 14.6704H86.6571V32.0001H0.0224609V14.6704Z" fill="#FFFFFE"/>
</mask>
<g mask="url(#mask1_140_76)">
<path fill-rule="evenodd" clip-rule="evenodd" d="M9.96782 32.0001C8.1847 32.0001 6.49045 31.7371 5.45507 31.2902C5.0362 31.1096 4.74745 30.7374 4.6822 30.2938C4.61732 29.8517 4.78682 29.4158 5.13557 29.1278C5.27432 29.0134 5.41757 28.9343 5.73145 28.7614C6.61607 28.2745 8.68795 27.1342 10.2618 25.3786C12.1068 23.32 12.5966 21.194 11.7596 18.8797L14.2109 18.0264C14.8432 19.775 14.9238 21.5074 14.4498 23.1758C14.0651 24.5301 13.3132 25.838 12.2156 27.0629C11.3628 28.014 10.3927 28.81 9.50357 29.4419C9.79682 29.4507 10.1021 29.4515 10.4171 29.4423C11.9384 29.3978 14.2218 29.1094 16.4587 27.9868C19.7928 26.314 21.9453 23.3461 22.8562 19.1655L25.3998 19.6988C24.8291 22.3177 23.8083 24.5779 22.3653 26.4166C21.1016 28.0277 19.5127 29.3202 17.6433 30.2581C14.9752 31.5969 12.2831 31.9405 10.4943 31.9923C10.3184 31.9975 10.1426 32.0001 9.96782 32.0001Z" fill="#FFFFFE"/>
</g>
<path fill-rule="evenodd" clip-rule="evenodd" d="M9.39713 2.83818C9.00488 2.62779 8.60588 2.45381 8.19976 2.31625C7.79326 2.17905 7.41263 2.10991 7.05788 2.10991C6.61913 2.10991 6.27376 2.19708 6.02176 2.37105C5.76938 2.5454 5.64338 2.80618 5.64338 3.15413C5.64338 3.39248 5.73901 3.60545 5.93063 3.79303C6.12188 3.98099 6.36938 4.14797 6.67276 4.29437C6.97613 4.44112 7.29113 4.57391 7.61813 4.69271C7.91701 4.80269 8.21363 4.93326 8.50763 5.08443C8.80201 5.23561 9.06563 5.42356 9.29888 5.64793C9.53213 5.8723 9.71926 6.15147 9.85913 6.48581C9.99938 6.82016 10.0695 7.22991 10.0695 7.71542C10.0695 8.22853 9.93413 8.70448 9.66301 9.14402C9.39226 9.58356 8.99551 9.93887 8.47276 10.2088C7.94963 10.4788 7.30538 10.6142 6.53963 10.6142C6.14738 10.6142 5.74838 10.5752 5.34226 10.4972C4.93576 10.4196 4.53676 10.3004 4.14488 10.1401C3.75263 9.98007 3.37426 9.77593 3.01013 9.52876L3.90638 7.9762C4.14938 8.15055 4.41301 8.30393 4.69801 8.43671C4.98263 8.56949 5.26988 8.67248 5.55938 8.74568C5.84851 8.81924 6.11476 8.85565 6.35776 8.85565C6.60038 8.85565 6.84563 8.82145 7.09313 8.75266C7.34026 8.68388 7.54576 8.56728 7.70926 8.40213C7.87238 8.23735 7.95451 8.00857 7.95451 7.71542C7.95451 7.51386 7.88663 7.33069 7.75126 7.16591C7.61588 7.00076 7.43363 6.84995 7.20488 6.71239C6.97613 6.57519 6.72638 6.45602 6.45563 6.35524C6.13801 6.23643 5.81138 6.09887 5.47538 5.94292C5.13901 5.7877 4.82401 5.59754 4.52963 5.37317C4.23563 5.1488 3.99751 4.86926 3.81563 4.53492C3.63338 4.20094 3.54226 3.79082 3.54226 3.30531C3.54226 2.71938 3.67538 2.21105 3.94163 1.78034C4.20788 1.35 4.58363 1.00903 5.06888 0.757077C5.55451 0.505123 6.11476 0.365353 6.74963 0.338135C7.58101 0.338135 8.25563 0.434135 8.77388 0.626503C9.29213 0.81887 9.75638 1.04765 10.1674 1.31322L9.39713 2.83818Z" fill="#FFFFFE"/>
<path fill-rule="evenodd" clip-rule="evenodd" d="M13.5289 5.46218C13.5289 5.91091 13.6102 6.33022 13.7741 6.71937C13.9372 7.10852 14.1664 7.45206 14.4604 7.74963C14.7544 8.04756 15.0952 8.27855 15.4826 8.44333C15.8704 8.60811 16.293 8.69087 16.7501 8.69087C17.1892 8.69087 17.5976 8.60811 17.976 8.44333C18.3544 8.27855 18.6832 8.04756 18.9634 7.74963C19.2435 7.45206 19.4629 7.10852 19.6219 6.71937C19.7801 6.33022 19.8596 5.91091 19.8596 5.46218C19.8596 5.00425 19.7782 4.57832 19.6147 4.18475C19.4509 3.79082 19.2274 3.44507 18.9424 3.14751C18.6574 2.84995 18.324 2.61859 17.9407 2.45381C17.5582 2.28866 17.1424 2.20627 16.6942 2.20627C16.2461 2.20627 15.8306 2.28866 15.4477 2.45381C15.0649 2.61859 14.7289 2.84995 14.4394 3.14751C14.1499 3.44507 13.9256 3.79082 13.767 4.18475C13.608 4.57832 13.5289 5.00425 13.5289 5.46218ZM11.4277 5.46218C11.4277 4.76627 11.5631 4.10678 11.8342 3.48406C12.105 2.86098 12.4807 2.30926 12.9619 1.82852C13.4422 1.34779 14.0002 0.969672 14.6355 0.694913C15.2704 0.420154 15.9517 0.282959 16.6804 0.282959C17.3992 0.282959 18.0761 0.420154 18.7114 0.694913C19.3462 0.969672 19.9087 1.34779 20.3992 1.82852C20.889 2.30926 21.2722 2.86098 21.5475 3.48406C21.8231 4.10678 21.9607 4.76627 21.9607 5.46218C21.9607 6.17684 21.8231 6.84517 21.5475 7.46788C21.2722 8.09096 20.889 8.6379 20.3992 9.10981C19.9087 9.58135 19.3462 9.9499 18.7114 10.2158C18.0761 10.4814 17.3992 10.6142 16.6804 10.6142C15.9517 10.6142 15.2704 10.4814 14.6355 10.2158C14.0002 9.9499 13.4422 9.58135 12.9619 9.10981C12.4807 8.6379 12.105 8.09096 11.8342 7.46788C11.5631 6.84517 11.4277 6.17684 11.4277 5.46218Z" fill="#FFFFFE"/>
<path fill-rule="evenodd" clip-rule="evenodd" d="M25.8124 6.76744C25.8124 7.08781 25.9106 7.39457 26.1067 7.68772C26.3029 7.98087 26.5616 8.21884 26.8841 8.40202C27.2062 8.58519 27.5587 8.67678 27.9412 8.67678C28.3616 8.67678 28.7347 8.58519 29.0617 8.40202C29.3887 8.21884 29.6479 7.98087 29.8395 7.68772C30.0304 7.39457 30.1264 7.08781 30.1264 6.76744V0.392822H32.1292V6.80827C32.1292 7.55016 31.9425 8.20781 31.569 8.77977C31.1955 9.35245 30.6911 9.80119 30.0566 10.1263C29.4214 10.4515 28.7164 10.6141 27.9412 10.6141C27.1755 10.6141 26.478 10.4515 25.8476 10.1263C25.2169 9.80119 24.7151 9.35245 24.3416 8.77977C23.9681 8.20781 23.7814 7.55016 23.7814 6.80827V0.392822H25.8124V6.76744Z" fill="#FFFFFE"/>
<path fill-rule="evenodd" clip-rule="evenodd" d="M34.5802 0.392822H36.6112V8.58078H41.4577V10.5041H34.5802V0.392822Z" fill="#FFFFFE"/>
<path fill-rule="evenodd" clip-rule="evenodd" d="M53.898 2.83818C53.5057 2.62779 53.1067 2.45381 52.7002 2.31625C52.2941 2.17905 51.9135 2.10991 51.5587 2.10991C51.1196 2.10991 50.7742 2.19708 50.5222 2.37105C50.2699 2.5454 50.1439 2.80618 50.1439 3.15413C50.1439 3.39248 50.2395 3.60545 50.4311 3.79303C50.6227 3.98099 50.8702 4.14797 51.1732 4.29437C51.477 4.44112 51.792 4.57391 52.119 4.69271C52.4179 4.80269 52.7145 4.93326 53.0085 5.08443C53.3025 5.23561 53.5661 5.42356 53.7997 5.64793C54.033 5.8723 54.2197 6.15147 54.36 6.48581C54.4999 6.82016 54.57 7.22991 54.57 7.71542C54.57 8.22853 54.4346 8.70448 54.1639 9.14402C53.8927 9.58356 53.4964 9.93887 52.9732 10.2088C52.4505 10.4788 51.8062 10.6142 51.0405 10.6142C50.6482 10.6142 50.2489 10.5752 49.8427 10.4972C49.4366 10.4196 49.0376 10.3004 48.6454 10.1401C48.2531 9.98007 47.8747 9.77593 47.511 9.52876L48.4072 7.9762C48.6499 8.15055 48.9135 8.30393 49.1989 8.43671C49.4831 8.56949 49.7704 8.67248 50.0602 8.74568C50.3494 8.81924 50.6156 8.85565 50.8582 8.85565C51.1012 8.85565 51.3461 8.82145 51.5936 8.75266C51.8411 8.68388 52.0462 8.56728 52.2101 8.40213C52.3732 8.23735 52.455 8.00857 52.455 7.71542C52.455 7.51386 52.3875 7.33069 52.2517 7.16591C52.1167 7.00076 51.9345 6.84995 51.7057 6.71239C51.477 6.57519 51.2272 6.45602 50.9565 6.35524C50.6385 6.23643 50.3119 6.09887 49.9759 5.94292C49.6395 5.7877 49.3249 5.59754 49.0305 5.37317C48.7361 5.1488 48.498 4.86926 48.3161 4.53492C48.1342 4.20094 48.0431 3.79082 48.0431 3.30531C48.0431 2.71938 48.1762 2.21105 48.4421 1.78034C48.7084 1.35 49.0841 1.00903 49.5697 0.757077C50.0554 0.505123 50.6156 0.365353 51.2505 0.338135C52.0815 0.338135 52.7561 0.434135 53.2747 0.626503C53.793 0.81887 54.2572 1.04765 54.6682 1.31322L53.898 2.83818Z" fill="#FFFFFE"/>
<path fill-rule="evenodd" clip-rule="evenodd" d="M58.3796 6.76744C58.3796 7.08781 58.4779 7.39457 58.6736 7.68772C58.8701 7.98087 59.1293 8.21884 59.451 8.40202C59.7735 8.58519 60.1256 8.67678 60.5089 8.67678C60.9289 8.67678 61.3024 8.58519 61.6294 8.40202C61.956 8.21884 62.2151 7.98087 62.4064 7.68772C62.598 7.39457 62.6936 7.08781 62.6936 6.76744V0.392822H64.6969V6.80827C64.6969 7.55016 64.5098 8.20781 64.1366 8.77977C63.7631 9.35245 63.2588 9.80119 62.6235 10.1263C61.9886 10.4515 61.2836 10.6141 60.5089 10.6141C59.7431 10.6141 59.0449 10.4515 58.4149 10.1263C57.7845 9.80119 57.2824 9.35245 56.9089 8.77977C56.5354 8.20781 56.3486 7.55016 56.3486 6.80827V0.392822H58.3796V6.76744Z" fill="#FFFFFE"/>
<path fill-rule="evenodd" clip-rule="evenodd" d="M70.2712 0.392822C70.9154 0.392822 71.4899 0.473006 71.9939 0.633006C72.4979 0.793374 72.9206 1.02252 73.2618 1.32009C73.6023 1.61802 73.8615 1.9748 74.0392 2.39153C74.2166 2.80864 74.3051 3.2776 74.3051 3.7999C74.3051 4.21186 74.2421 4.62418 74.1161 5.0365C73.9901 5.44845 73.7842 5.82399 73.4996 6.16275C73.2794 6.42482 73.0047 6.64726 72.6754 6.83008L75.0757 10.5041H72.7083L70.5315 7.28937H69.1788V10.5041H67.1478V0.392822H70.2712ZM70.6353 2.31613H69.1788V5.36606H70.6215C70.9297 5.36606 71.1862 5.31567 71.3917 5.21489C71.5968 5.11411 71.7581 4.98611 71.8747 4.83016C71.9917 4.67457 72.0757 4.51199 72.1271 4.34243C72.1785 4.17324 72.204 4.01507 72.204 3.86868C72.204 3.75871 72.1874 3.61931 72.1548 3.44937C72.1226 3.28018 72.0547 3.10841 71.9519 2.93443C71.8492 2.76045 71.6928 2.6137 71.4824 2.49452C71.2728 2.37572 70.9901 2.31613 70.6353 2.31613Z" fill="#FFFFFE"/>
<path fill-rule="evenodd" clip-rule="evenodd" d="M76.7561 0.392822H83.1994V2.31613H78.7871V4.6102H82.6106V6.53351H78.7871V10.5041H76.7561V0.392822Z" fill="#FFFFFE"/>
</g>
<defs>
<clipPath id="clip0_140_76">
<rect width="87" height="32" fill="white"/>
</clipPath>
</defs>
</svg>
