<svg width="87" height="32" viewBox="0 0 87 32" fill="none" xmlns="http://www.w3.org/2000/svg">
<g clip-path="url(#clip0_730_104)">
<mask id="mask0_730_104" style="mask-type:luminance" maskUnits="userSpaceOnUse" x="0" y="14" width="87" height="18">
<path d="M0.0224609 14.6704H86.6571V32.0001H0.0224609V14.6704Z" fill="#FFFFFE"/>
</mask>
<g mask="url(#mask0_730_104)">
<path fill-rule="evenodd" clip-rule="evenodd" d="M34.4573 20.4411C29.1521 20.4411 24.3885 20.3385 20.2118 20.1332C15.7268 19.9129 11.8725 19.5697 8.75514 19.1133C5.20389 18.5936 2.58677 17.9363 0.754517 17.1039C0.102392 16.8078 -0.181108 16.0497 0.120767 15.4105C0.422642 14.7708 1.19552 14.4928 1.84764 14.7889C6.35852 16.838 17.5163 17.8907 34.4284 17.8907C38.6389 17.8907 43.2038 17.8256 48.1144 17.6942C66.7133 17.197 84.2997 15.885 85.2116 15.7897C85.9245 15.711 86.5676 16.2138 86.6487 16.9134C86.73 17.6133 86.217 18.2452 85.5034 18.3247C85.2375 18.3545 80.817 18.7006 73.8469 19.1147C67.6931 19.4811 58.2641 19.9732 48.2895 20.2417C43.3433 20.3749 38.7251 20.4411 34.4573 20.4411Z" fill="black"/>
</g>
<mask id="mask1_730_104" style="mask-type:luminance" maskUnits="userSpaceOnUse" x="0" y="14" width="87" height="18">
<path d="M0.0224609 14.6704H86.6571V32.0001H0.0224609V14.6704Z" fill="#FFFFFE"/>
</mask>
<g mask="url(#mask1_730_104)">
<path fill-rule="evenodd" clip-rule="evenodd" d="M9.9677 32.0001C8.18457 32.0001 6.49033 31.7371 5.45495 31.2902C5.03608 31.1096 4.74732 30.7374 4.68207 30.2938C4.6172 29.8517 4.7867 29.4158 5.13545 29.1278C5.2742 29.0134 5.41745 28.9343 5.73133 28.7614C6.61595 28.2745 8.68783 27.1342 10.2617 25.3786C12.1067 23.32 12.5965 21.194 11.7594 18.8797L14.2108 18.0264C14.8431 19.775 14.9237 21.5074 14.4497 23.1758C14.0649 24.5301 13.3131 25.838 12.2155 27.0629C11.3627 28.014 10.3926 28.81 9.50345 29.4419C9.7967 29.4507 10.1019 29.4515 10.4169 29.4423C11.9383 29.3978 14.2217 29.1094 16.4586 27.9868C19.7927 26.314 21.9452 23.3461 22.8561 19.1655L25.3997 19.6988C24.8289 22.3177 23.8082 24.5779 22.3652 26.4166C21.1014 28.0277 19.5126 29.3202 17.6432 30.2581C14.9751 31.5969 12.2829 31.9405 10.4942 31.9923C10.3183 31.9975 10.1424 32.0001 9.9677 32.0001Z" fill="black"/>
</g>
<path fill-rule="evenodd" clip-rule="evenodd" d="M9.39725 2.83818C9.005 2.62779 8.606 2.45381 8.19988 2.31625C7.79338 2.17905 7.41275 2.10991 7.058 2.10991C6.61925 2.10991 6.27388 2.19708 6.02188 2.37105C5.7695 2.5454 5.6435 2.80618 5.6435 3.15413C5.6435 3.39248 5.73913 3.60545 5.93075 3.79303C6.122 3.98099 6.3695 4.14797 6.67288 4.29437C6.97625 4.44112 7.29125 4.57391 7.61825 4.69271C7.91713 4.80269 8.21375 4.93326 8.50775 5.08443C8.80213 5.23561 9.06575 5.42356 9.299 5.64793C9.53225 5.8723 9.71938 6.15147 9.85925 6.48581C9.9995 6.82016 10.0696 7.22991 10.0696 7.71542C10.0696 8.22853 9.93425 8.70448 9.66313 9.14402C9.39238 9.58356 8.99563 9.93887 8.47288 10.2088C7.94975 10.4788 7.3055 10.6142 6.53975 10.6142C6.1475 10.6142 5.7485 10.5752 5.34238 10.4972C4.93588 10.4196 4.53688 10.3004 4.145 10.1401C3.75275 9.98007 3.37438 9.77593 3.01025 9.52876L3.9065 7.9762C4.1495 8.15055 4.41313 8.30393 4.69813 8.43671C4.98275 8.56949 5.27 8.67248 5.5595 8.74568C5.84863 8.81924 6.11488 8.85565 6.35788 8.85565C6.6005 8.85565 6.84575 8.82145 7.09325 8.75266C7.34038 8.68388 7.54588 8.56728 7.70938 8.40213C7.8725 8.23735 7.95463 8.00857 7.95463 7.71542C7.95463 7.51386 7.88675 7.33069 7.75138 7.16591C7.616 7.00076 7.43375 6.84995 7.205 6.71239C6.97625 6.57519 6.7265 6.45602 6.45575 6.35524C6.13813 6.23643 5.8115 6.09887 5.4755 5.94292C5.13913 5.7877 4.82413 5.59754 4.52975 5.37317C4.23575 5.1488 3.99763 4.86926 3.81575 4.53492C3.6335 4.20094 3.54238 3.79082 3.54238 3.30531C3.54238 2.71938 3.6755 2.21105 3.94175 1.78034C4.208 1.35 4.58375 1.00903 5.069 0.757077C5.55463 0.505123 6.11488 0.365353 6.74975 0.338135C7.58113 0.338135 8.25575 0.434135 8.774 0.626503C9.29225 0.81887 9.7565 1.04765 10.1675 1.31322L9.39725 2.83818Z" fill="black"/>
<path fill-rule="evenodd" clip-rule="evenodd" d="M13.5289 5.46218C13.5289 5.91091 13.6102 6.33022 13.7741 6.71937C13.9372 7.10852 14.1664 7.45206 14.4604 7.74963C14.7544 8.04756 15.0952 8.27855 15.4826 8.44333C15.8704 8.60811 16.293 8.69087 16.7501 8.69087C17.1892 8.69087 17.5976 8.60811 17.976 8.44333C18.3544 8.27855 18.6832 8.04756 18.9634 7.74963C19.2435 7.45206 19.4629 7.10852 19.6219 6.71937C19.7801 6.33022 19.8596 5.91091 19.8596 5.46218C19.8596 5.00425 19.7782 4.57832 19.6147 4.18475C19.4509 3.79082 19.2274 3.44507 18.9424 3.14751C18.6574 2.84995 18.324 2.61859 17.9407 2.45381C17.5582 2.28866 17.1424 2.20627 16.6942 2.20627C16.2461 2.20627 15.8306 2.28866 15.4477 2.45381C15.0649 2.61859 14.7289 2.84995 14.4394 3.14751C14.1499 3.44507 13.9256 3.79082 13.767 4.18475C13.608 4.57832 13.5289 5.00425 13.5289 5.46218ZM11.4277 5.46218C11.4277 4.76627 11.5631 4.10678 11.8342 3.48406C12.105 2.86098 12.4807 2.30926 12.9619 1.82852C13.4422 1.34779 14.0002 0.969672 14.6355 0.694913C15.2704 0.420154 15.9517 0.282959 16.6804 0.282959C17.3992 0.282959 18.0761 0.420154 18.7114 0.694913C19.3462 0.969672 19.9087 1.34779 20.3992 1.82852C20.889 2.30926 21.2722 2.86098 21.5475 3.48406C21.8231 4.10678 21.9607 4.76627 21.9607 5.46218C21.9607 6.17684 21.8231 6.84517 21.5475 7.46788C21.2722 8.09096 20.889 8.6379 20.3992 9.10981C19.9087 9.58135 19.3462 9.9499 18.7114 10.2158C18.0761 10.4814 17.3992 10.6142 16.6804 10.6142C15.9517 10.6142 15.2704 10.4814 14.6355 10.2158C14.0002 9.9499 13.4422 9.58135 12.9619 9.10981C12.4807 8.6379 12.105 8.09096 11.8342 7.46788C11.5631 6.84517 11.4277 6.17684 11.4277 5.46218Z" fill="black"/>
<path fill-rule="evenodd" clip-rule="evenodd" d="M25.8123 6.76744C25.8123 7.08781 25.9105 7.39457 26.1066 7.68772C26.3027 7.98087 26.5615 8.21884 26.884 8.40202C27.2061 8.58519 27.5586 8.67678 27.9411 8.67678C28.3615 8.67678 28.7346 8.58519 29.0616 8.40202C29.3886 8.21884 29.6477 7.98087 29.8394 7.68772C30.0302 7.39457 30.1262 7.08781 30.1262 6.76744V0.392822H32.1291V6.80827C32.1291 7.55016 31.9424 8.20781 31.5689 8.77977C31.1954 9.35245 30.691 9.80119 30.0565 10.1263C29.4213 10.4515 28.7163 10.6141 27.9411 10.6141C27.1754 10.6141 26.4779 10.4515 25.8475 10.1263C25.2168 9.80119 24.715 9.35245 24.3415 8.77977C23.968 8.20781 23.7812 7.55016 23.7812 6.80827V0.392822H25.8123V6.76744Z" fill="black"/>
<path fill-rule="evenodd" clip-rule="evenodd" d="M34.5801 0.392822H36.6111V8.58078H41.4576V10.5041H34.5801V0.392822Z" fill="black"/>
<path fill-rule="evenodd" clip-rule="evenodd" d="M53.8977 2.83818C53.5055 2.62779 53.1065 2.45381 52.7 2.31625C52.2939 2.17905 51.9132 2.10991 51.5585 2.10991C51.1194 2.10991 50.774 2.19708 50.522 2.37105C50.2696 2.5454 50.1436 2.80618 50.1436 3.15413C50.1436 3.39248 50.2392 3.60545 50.4309 3.79303C50.6225 3.98099 50.87 4.14797 51.173 4.29437C51.4767 4.44112 51.7917 4.57391 52.1187 4.69271C52.4176 4.80269 52.7142 4.93326 53.0082 5.08443C53.3022 5.23561 53.5659 5.42356 53.7995 5.64793C54.0327 5.8723 54.2195 6.15147 54.3597 6.48581C54.4996 6.82016 54.5697 7.22991 54.5697 7.71542C54.5697 8.22853 54.4344 8.70448 54.1636 9.14402C53.8925 9.58356 53.4961 9.93887 52.973 10.2088C52.4502 10.4788 51.806 10.6142 51.0402 10.6142C50.648 10.6142 50.2486 10.5752 49.8425 10.4972C49.4364 10.4196 49.0374 10.3004 48.6451 10.1401C48.2529 9.98007 47.8745 9.77593 47.5107 9.52876L48.407 7.9762C48.6496 8.15055 48.9132 8.30393 49.1986 8.43671C49.4829 8.56949 49.7701 8.67248 50.06 8.74568C50.3491 8.81924 50.6154 8.85565 50.858 8.85565C51.101 8.85565 51.3459 8.82145 51.5934 8.75266C51.8409 8.68388 52.046 8.56728 52.2099 8.40213C52.373 8.23735 52.4547 8.00857 52.4547 7.71542C52.4547 7.51386 52.3872 7.33069 52.2515 7.16591C52.1165 7.00076 51.9342 6.84995 51.7055 6.71239C51.4767 6.57519 51.227 6.45602 50.9562 6.35524C50.6382 6.23643 50.3116 6.09887 49.9756 5.94292C49.6392 5.7877 49.3246 5.59754 49.0302 5.37317C48.7359 5.1488 48.4977 4.86926 48.3159 4.53492C48.134 4.20094 48.0429 3.79082 48.0429 3.30531C48.0429 2.71938 48.176 2.21105 48.4419 1.78034C48.7081 1.35 49.0839 1.00903 49.5695 0.757077C50.0551 0.505123 50.6154 0.365353 51.2502 0.338135C52.0812 0.338135 52.7559 0.434135 53.2745 0.626503C53.7927 0.81887 54.257 1.04765 54.668 1.31322L53.8977 2.83818Z" fill="black"/>
<path fill-rule="evenodd" clip-rule="evenodd" d="M58.3796 6.76744C58.3796 7.08781 58.4779 7.39457 58.6736 7.68772C58.8701 7.98087 59.1293 8.21884 59.451 8.40202C59.7735 8.58519 60.1256 8.67678 60.5089 8.67678C60.9289 8.67678 61.3024 8.58519 61.6294 8.40202C61.956 8.21884 62.2151 7.98087 62.4064 7.68772C62.598 7.39457 62.6936 7.08781 62.6936 6.76744V0.392822H64.6969V6.80827C64.6969 7.55016 64.5098 8.20781 64.1366 8.77977C63.7631 9.35245 63.2588 9.80119 62.6235 10.1263C61.9886 10.4515 61.2836 10.6141 60.5089 10.6141C59.7431 10.6141 59.0449 10.4515 58.4149 10.1263C57.7845 9.80119 57.2824 9.35245 56.9089 8.77977C56.5354 8.20781 56.3486 7.55016 56.3486 6.80827V0.392822H58.3796V6.76744Z" fill="black"/>
<path fill-rule="evenodd" clip-rule="evenodd" d="M70.2713 0.392822C70.9156 0.392822 71.4901 0.473006 71.9941 0.633006C72.4981 0.793374 72.9207 1.02252 73.2619 1.32009C73.6024 1.61802 73.8616 1.9748 74.0393 2.39153C74.2167 2.80864 74.3052 3.2776 74.3052 3.7999C74.3052 4.21186 74.2422 4.62418 74.1162 5.0365C73.9902 5.44845 73.7843 5.82399 73.4997 6.16275C73.2795 6.42482 73.0048 6.64726 72.6755 6.83008L75.0758 10.5041H72.7084L70.5316 7.28937H69.1789V10.5041H67.1479V0.392822H70.2713ZM70.6354 2.31613H69.1789V5.36606H70.6216C70.9298 5.36606 71.1863 5.31567 71.3918 5.21489C71.5969 5.11411 71.7582 4.98611 71.8748 4.83016C71.9918 4.67457 72.0758 4.51199 72.1272 4.34243C72.1786 4.17324 72.2041 4.01507 72.2041 3.86868C72.2041 3.75871 72.1876 3.61931 72.1549 3.44937C72.1227 3.28018 72.0548 3.10841 71.9521 2.93443C71.8493 2.76045 71.6929 2.6137 71.4826 2.49452C71.2729 2.37572 70.9902 2.31613 70.6354 2.31613Z" fill="black"/>
<path fill-rule="evenodd" clip-rule="evenodd" d="M76.7559 0.392822H83.1991V2.31613H78.7869V4.6102H82.6104V6.53351H78.7869V10.5041H76.7559V0.392822Z" fill="black"/>
</g>
<defs>
<clipPath id="clip0_730_104">
<rect width="87" height="32" fill="white"/>
</clipPath>
</defs>
</svg>
