<svg width="269" height="99" viewBox="0 0 269 99" fill="none" xmlns="http://www.w3.org/2000/svg">
<g clip-path="url(#clip0_604_191)">
<mask id="mask0_604_191" style="mask-type:luminance" maskUnits="userSpaceOnUse" x="0" y="45" width="268" height="54">
<path d="M0.0695724 45.3867H267.94V99.0004H0.0695724V45.3867Z" fill="#FFFFFE"/>
</mask>
<g mask="url(#mask0_604_191)">
<path fill-rule="evenodd" clip-rule="evenodd" d="M106.54 63.2398C90.137 63.2398 75.4081 62.9223 62.4938 62.2873C48.6264 61.6057 36.7092 60.544 27.0705 59.1318C16.0902 57.5239 7.99812 55.4905 2.33289 52.9153C0.316546 51.9993 -0.560023 49.654 0.37336 47.6763C1.30674 45.6974 3.69644 44.8371 5.71278 45.7532C19.6602 52.0926 54.1595 55.3494 106.451 55.3494C119.47 55.3494 133.584 55.1479 148.767 54.7417C206.274 53.2032 260.651 49.1442 263.47 48.8495C265.675 48.606 267.663 50.1615 267.914 52.3259C268.165 54.4914 266.579 56.4463 264.373 56.6921C263.55 56.7843 249.882 57.8551 228.331 59.1364C209.304 60.2698 180.15 61.7923 149.309 62.623C134.015 63.0349 119.736 63.2398 106.54 63.2398Z" fill="#FFFFFE"/>
</g>
<mask id="mask1_604_191" style="mask-type:luminance" maskUnits="userSpaceOnUse" x="0" y="45" width="268" height="54">
<path d="M0.0695724 45.3867H267.94V99.0004H0.0695724V45.3867Z" fill="#FFFFFE"/>
</mask>
<g mask="url(#mask1_604_191)">
<path fill-rule="evenodd" clip-rule="evenodd" d="M30.8202 99.0007C25.3069 99.0007 20.0683 98.1871 16.867 96.8045C15.5719 96.2457 14.6791 95.0942 14.4773 93.7218C14.2767 92.354 14.8008 91.0056 15.8791 90.1146C16.3081 89.7607 16.751 89.516 17.7215 88.9812C20.4568 87.4746 26.8629 83.947 31.7292 78.5156C37.4339 72.1466 38.9482 65.5694 36.3602 58.4095L43.9398 55.7695C45.8946 61.1793 46.1439 66.5389 44.6783 71.7006C43.4887 75.8904 41.164 79.9369 37.7702 83.7262C35.1335 86.6689 32.1339 89.1314 29.3848 91.0864C30.2915 91.1137 31.2353 91.1159 32.2093 91.0875C36.9133 90.9498 43.9734 90.0577 50.8897 86.5847C61.1987 81.4094 67.8541 72.2274 70.6705 59.2937L78.5352 60.9437C76.7705 69.0458 73.6144 76.0384 69.1527 81.7269C65.2453 86.711 60.3325 90.7097 54.5525 93.6114C46.3028 97.7535 37.9789 98.8163 32.4481 98.9768C31.9043 98.9927 31.3605 99.0007 30.8202 99.0007Z" fill="#FFFFFE"/>
</g>
<path fill-rule="evenodd" clip-rule="evenodd" d="M29.0555 8.78042C27.8427 8.12952 26.609 7.59128 25.3533 7.16569C24.0964 6.74124 22.9195 6.52731 21.8226 6.52731C20.466 6.52731 19.3982 6.797 18.619 7.33524C17.8386 7.87462 17.4491 8.68142 17.4491 9.7579C17.4491 10.4953 17.7447 11.1541 18.3372 11.7345C18.9286 12.316 19.6938 12.8326 20.6318 13.2855C21.5699 13.7395 22.5438 14.1503 23.5549 14.5179C24.479 14.8581 25.3962 15.2621 26.3052 15.7298C27.2154 16.1975 28.0305 16.7789 28.7517 17.4731C29.4729 18.1672 30.0515 19.0309 30.484 20.0653C30.9176 21.0997 31.1344 22.3673 31.1344 23.8694C31.1344 25.4568 30.7159 26.9293 29.8776 28.2891C29.0404 29.6489 27.8137 30.7482 26.1974 31.5834C24.5799 32.4187 22.5879 32.8374 20.2202 32.8374C19.0074 32.8374 17.7737 32.7168 16.518 32.4756C15.2611 32.2355 14.0274 31.8668 12.8158 31.3706C11.603 30.8756 10.433 30.2441 9.30717 29.4794L12.0783 24.6762C12.8297 25.2156 13.6448 25.6901 14.526 26.1009C15.4061 26.5117 16.2942 26.8303 17.1893 27.0567C18.0833 27.2843 18.9065 27.397 19.6579 27.397C20.4081 27.397 21.1664 27.2911 21.9316 27.0783C22.6957 26.8656 23.3311 26.5048 23.8367 25.9939C24.341 25.4841 24.595 24.7763 24.595 23.8694C24.595 23.2458 24.3851 22.6791 23.9665 22.1693C23.5479 21.6584 22.9844 21.1918 22.2771 20.7662C21.5699 20.3418 20.7976 19.9731 19.9605 19.6613C18.9784 19.2938 17.9685 18.8682 16.9296 18.3857C15.8896 17.9055 14.9156 17.3172 14.0054 16.623C13.0964 15.9289 12.3601 15.0641 11.7977 14.0297C11.2342 12.9965 10.9525 11.7277 10.9525 10.2256C10.9525 8.41286 11.3641 6.84024 12.1873 5.50773C13.0106 4.17635 14.1724 3.12148 15.6727 2.342C17.1743 1.56252 18.9065 1.13011 20.8695 1.0459C23.4401 1.0459 25.526 1.3429 27.1284 1.93804C28.7308 2.53317 30.1663 3.24097 31.4371 4.06255L29.0555 8.78042Z" fill="#FFFFFE"/>
<path fill-rule="evenodd" clip-rule="evenodd" d="M41.8307 16.8982C41.8307 18.2865 42.0823 19.5837 42.589 20.7877C43.0933 21.9916 43.8018 23.0544 44.7108 23.975C45.6198 24.8967 46.6738 25.6113 47.8716 26.1211C49.0705 26.6309 50.3772 26.887 51.7906 26.887C53.1484 26.887 54.411 26.6309 55.581 26.1211C56.7509 25.6113 57.7677 24.8967 58.6339 23.975C59.5 23.0544 60.1783 21.9916 60.6699 20.7877C61.1592 19.5837 61.405 18.2865 61.405 16.8982C61.405 15.4815 61.1534 14.1638 60.6479 12.9462C60.1412 11.7274 59.4502 10.6578 58.5689 9.73721C57.6877 8.81662 56.657 8.10086 55.472 7.59107C54.2893 7.08014 53.0034 6.82524 51.6179 6.82524C50.2323 6.82524 48.9476 7.08014 47.7637 7.59107C46.5799 8.10086 45.541 8.81662 44.6459 9.73721C43.7508 10.6578 43.0574 11.7274 42.5669 12.9462C42.0753 14.1638 41.8307 15.4815 41.8307 16.8982ZM35.3341 16.8982C35.3341 14.7452 35.7526 12.7049 36.591 10.7784C37.4281 8.85076 38.5899 7.14386 40.0775 5.65659C41.5628 4.16931 43.2881 2.99952 45.2523 2.14948C47.2153 1.29945 49.3221 0.875 51.5749 0.875C53.7977 0.875 55.8905 1.29945 57.8547 2.14948C59.8177 2.99952 61.5569 4.16931 63.0735 5.65659C64.5878 7.14386 65.7728 8.85076 66.6239 10.7784C67.4761 12.7049 67.9016 14.7452 67.9016 16.8982C67.9016 19.1092 67.4761 21.1768 66.6239 23.1033C65.7728 25.031 64.5878 26.7231 63.0735 28.1831C61.5569 29.6419 59.8177 30.7821 57.8547 31.6048C55.8905 32.4264 53.7977 32.8372 51.5749 32.8372C49.3221 32.8372 47.2153 32.4264 45.2523 31.6048C43.2881 30.7821 41.5628 29.6419 40.0775 28.1831C38.5899 26.7231 37.4281 25.031 36.591 23.1033C35.7526 21.1768 35.3341 19.1092 35.3341 16.8982Z" fill="#FFFFFE"/>
<path fill-rule="evenodd" clip-rule="evenodd" d="M79.8107 20.9363C79.8107 21.9275 80.1145 22.8765 80.7209 23.7834C81.3273 24.6904 82.1273 25.4266 83.1245 25.9933C84.1205 26.56 85.2104 26.8433 86.3931 26.8433C87.6928 26.8433 88.8465 26.56 89.8576 25.9933C90.8687 25.4266 91.6699 24.6904 92.2624 23.7834C92.8525 22.8765 93.1494 21.9275 93.1494 20.9363V1.21484H99.3422V21.0626C99.3422 23.3578 98.7647 25.3925 97.6099 27.1619C96.455 28.9337 94.8955 30.322 92.9337 31.3279C90.9695 32.3338 88.7897 32.8368 86.3931 32.8368C84.0254 32.8368 81.8688 32.3338 79.9197 31.3279C77.9694 30.322 76.418 28.9337 75.2632 27.1619C74.1083 25.3925 73.5309 23.3578 73.5309 21.0626V1.21484H79.8107V20.9363Z" fill="#FFFFFE"/>
<path fill-rule="evenodd" clip-rule="evenodd" d="M106.921 1.21484H113.2V26.5463H128.185V32.4966H106.921V1.21484Z" fill="#FFFFFE"/>
<path fill-rule="evenodd" clip-rule="evenodd" d="M166.65 8.78042C165.437 8.12952 164.204 7.59128 162.947 7.16569C161.691 6.74124 160.514 6.52731 159.417 6.52731C158.06 6.52731 156.992 6.797 156.212 7.33524C155.432 7.87462 155.043 8.68142 155.043 9.7579C155.043 10.4953 155.338 11.1541 155.931 11.7345C156.523 12.316 157.288 12.8326 158.225 13.2855C159.165 13.7395 160.138 14.1503 161.15 14.5179C162.074 14.8581 162.991 15.2621 163.9 15.7298C164.809 16.1975 165.624 16.7789 166.346 17.4731C167.068 18.1672 167.645 19.0309 168.079 20.0653C168.511 21.0997 168.728 22.3673 168.728 23.8694C168.728 25.4568 168.309 26.9293 167.472 28.2891C166.634 29.6489 165.408 30.7482 163.791 31.5834C162.175 32.4187 160.183 32.8374 157.815 32.8374C156.602 32.8374 155.367 32.7168 154.111 32.4756C152.856 32.2355 151.622 31.8668 150.409 31.3706C149.196 30.8756 148.027 30.2441 146.902 29.4794L149.673 24.6762C150.423 25.2156 151.238 25.6901 152.121 26.1009C153 26.5117 153.888 26.8303 154.784 27.0567C155.678 27.2843 156.501 27.397 157.251 27.397C158.003 27.397 158.76 27.2911 159.525 27.0783C160.29 26.8656 160.925 26.5048 161.431 25.9939C161.936 25.4841 162.188 24.7763 162.188 23.8694C162.188 23.2458 161.98 22.6791 161.56 22.1693C161.143 21.6584 160.579 21.1918 159.872 20.7662C159.165 20.3418 158.392 19.9731 157.555 19.6613C156.572 19.2938 155.562 18.8682 154.523 18.3857C153.483 17.9055 152.51 17.3172 151.6 16.623C150.69 15.9289 149.954 15.0641 149.391 14.0297C148.829 12.9965 148.547 11.7277 148.547 10.2256C148.547 8.41286 148.959 6.84024 149.781 5.50773C150.604 4.17635 151.766 3.12148 153.267 2.342C154.769 1.56252 156.501 1.13011 158.464 1.0459C161.034 1.0459 163.12 1.3429 164.723 1.93804C166.325 2.53317 167.761 3.24097 169.032 4.06255L166.65 8.78042Z" fill="#FFFFFE"/>
<path fill-rule="evenodd" clip-rule="evenodd" d="M180.507 20.9363C180.507 21.9275 180.811 22.8765 181.416 23.7834C182.024 24.6904 182.825 25.4266 183.82 25.9933C184.817 26.56 185.906 26.8433 187.091 26.8433C188.389 26.8433 189.544 26.56 190.555 25.9933C191.565 25.4266 192.366 24.6904 192.958 23.7834C193.55 22.8765 193.846 21.9275 193.846 20.9363V1.21484H200.04V21.0626C200.04 23.3578 199.461 25.3925 198.308 27.1619C197.153 28.9337 195.593 30.322 193.629 31.3279C191.666 32.3338 189.486 32.8368 187.091 32.8368C184.723 32.8368 182.564 32.3338 180.616 31.3279C178.667 30.322 177.115 28.9337 175.96 27.1619C174.805 25.3925 174.227 23.3578 174.227 21.0626V1.21484H180.507V20.9363Z" fill="#FFFFFE"/>
<path fill-rule="evenodd" clip-rule="evenodd" d="M217.275 1.21484C219.267 1.21484 221.044 1.46291 222.602 1.95791C224.16 2.45405 225.467 3.16298 226.522 4.08357C227.575 5.00529 228.376 6.10909 228.926 7.39836C229.474 8.68877 229.748 10.1396 229.748 11.7555C229.748 13.03 229.553 14.3056 229.164 15.5812C228.774 16.8557 228.137 18.0175 227.257 19.0656C226.577 19.8763 225.727 20.5645 224.709 21.1301L232.131 32.4966H224.811L218.08 22.5511H213.898V32.4966H207.618V1.21484H217.275ZM218.401 7.16508H213.898V16.6008H218.358C219.312 16.6008 220.105 16.4449 220.74 16.1331C221.374 15.8213 221.873 15.4253 222.233 14.9428C222.595 14.4615 222.855 13.9585 223.014 13.4339C223.173 12.9105 223.251 12.4212 223.251 11.9683C223.251 11.628 223.2 11.1968 223.1 10.6711C223 10.1476 222.79 9.61619 222.472 9.07795C222.155 8.53971 221.671 8.08567 221.021 7.71698C220.372 7.34943 219.498 7.16508 218.401 7.16508Z" fill="#FFFFFE"/>
<path fill-rule="evenodd" clip-rule="evenodd" d="M237.326 1.21484H257.249V7.16508H243.606V14.2624H255.428V20.2126H243.606V32.4966H237.326V1.21484Z" fill="#FFFFFE"/>
</g>
<defs>
<clipPath id="clip0_604_191">
<rect width="269" height="99" fill="white"/>
</clipPath>
</defs>
</svg>
