<svg width="36" height="36" viewBox="0 0 36 36" fill="none" xmlns="http://www.w3.org/2000/svg">
<g id="noun-community-4398555 1" clip-path="url(#clip0_424_15)">
<g id="Group">
<path id="Vector" d="M18.2764 0.366211C17.1339 0.366211 16.1998 1.30032 16.1998 2.44282C16.1998 3.58533 17.1339 4.51944 18.2764 4.51944C19.4189 4.51944 20.353 3.58533 20.353 2.44282C20.353 1.30032 19.4189 0.366211 18.2764 0.366211ZM18.2764 4.77726C15.7976 4.77726 13.4701 5.43898 11.4653 6.59487C11.4399 6.60883 11.4162 6.6257 11.3947 6.64513C11.3268 6.70248 11.2815 6.78218 11.267 6.86991C11.2524 6.95764 11.2697 7.04765 11.3155 7.12384L14.7582 12.9946C14.7609 12.9988 14.7636 13.0029 14.7665 13.007C14.7945 13.0524 14.832 13.0913 14.8763 13.121C14.9206 13.1507 14.9708 13.1705 15.0234 13.1793C15.0761 13.188 15.13 13.1853 15.1815 13.1715C15.233 13.1577 15.281 13.133 15.3222 13.0991C16.1974 12.6131 17.2029 12.3355 18.2765 12.3355C19.3258 12.3355 20.3106 12.6002 21.1717 13.0658C21.2081 13.1265 21.2609 13.1757 21.324 13.2076C21.3872 13.2395 21.4581 13.2528 21.5285 13.246C21.5989 13.2393 21.6659 13.2127 21.7218 13.1693C21.7778 13.126 21.8202 13.0677 21.8443 13.0011C21.8678 12.9563 21.8818 12.9071 21.8857 12.8567C21.8896 12.8062 21.8832 12.7555 21.8669 12.7075L21.8738 8.90407C23.2349 9.42108 24.4793 10.238 25.4896 11.2438C25.4918 11.2461 25.4942 11.2484 25.4965 11.2507C26.1714 11.9256 27.277 11.9256 27.9519 11.2507C28.6169 10.5857 28.6261 9.50292 27.9807 8.82566C27.9717 8.81503 27.962 8.80491 27.9519 8.79534C25.4812 6.32462 22.0463 4.77726 18.2764 4.77726ZM10.0232 8.17669C9.58668 8.17669 9.15059 8.33949 8.81564 8.66402C8.80881 8.67009 8.80221 8.67642 8.79585 8.68299C6.32514 11.1537 4.77733 14.5876 4.77733 18.3575C4.77733 20.8204 5.43059 23.1336 6.57272 25.1295C6.59178 25.1821 6.62237 25.2297 6.66225 25.2688C6.70212 25.308 6.75026 25.3377 6.80314 25.3558C6.85601 25.3739 6.91227 25.38 6.96777 25.3735C7.02328 25.367 7.07663 25.3481 7.1239 25.3183L12.9948 21.8762C13.0418 21.8496 13.0826 21.813 13.1142 21.7691C13.1457 21.7252 13.1674 21.6749 13.1777 21.6218C13.1879 21.5687 13.1866 21.5139 13.1736 21.4614C13.1607 21.4089 13.1365 21.3598 13.1028 21.3175C12.6148 20.4409 12.3361 19.4334 12.3361 18.3575C12.3361 17.3082 12.6007 16.3235 13.0664 15.4624C13.1318 15.4233 13.1837 15.3652 13.2152 15.2959C13.2467 15.2265 13.2563 15.1492 13.2426 15.0743C13.229 14.9993 13.1928 14.9303 13.1389 14.8765C13.085 14.8227 13.0159 14.7866 12.941 14.7731C12.9042 14.761 12.8657 14.7546 12.827 14.7543C12.7934 14.754 12.76 14.7582 12.7276 14.7668L8.90454 14.7598C9.42136 13.3993 10.2379 12.1553 11.2431 11.1453C11.2459 11.1426 11.2486 11.1398 11.2514 11.137C11.9263 10.4621 11.9263 9.35644 11.2514 8.68155C10.9139 8.34412 10.4686 8.17523 10.0235 8.17523L10.0232 8.17669ZM29.7133 11.2616C29.6418 11.2598 29.5713 11.2785 29.5101 11.3156L23.6944 14.7258C23.6432 14.745 23.5967 14.7752 23.5584 14.8142C23.5201 14.8533 23.4908 14.9003 23.4727 14.9519C23.4494 15.0136 23.4429 15.0803 23.4538 15.1453C23.4646 15.2103 23.4924 15.2713 23.5344 15.3221C24.0204 16.1973 24.2979 17.2026 24.2979 18.2762C24.2979 19.3305 24.0307 20.3197 23.5609 21.1838C23.501 21.2247 23.4544 21.282 23.4265 21.3489C23.3987 21.4158 23.3909 21.4893 23.404 21.5606C23.4172 21.6318 23.4507 21.6977 23.5006 21.7502C23.5505 21.8028 23.6146 21.8397 23.6851 21.8565C23.7542 21.8812 23.829 21.8851 23.9003 21.8676L27.7296 21.8745C27.2114 23.2388 26.3918 24.486 25.3829 25.4974C24.708 26.1723 24.708 27.2772 25.3829 27.9521C26.0478 28.617 27.1305 28.6264 27.8078 27.9812C27.8185 27.9721 27.8287 27.9624 27.8383 27.9521C30.3091 25.4814 31.8567 22.0475 31.8567 18.2776C31.8567 15.7987 31.1956 13.4713 30.0397 11.4665C30.0313 11.4518 30.022 11.4376 30.0117 11.4241C29.9782 11.3757 29.9337 11.3358 29.8819 11.3077C29.8301 11.2797 29.7722 11.263 29.7133 11.2616ZM34.1911 16.1998C33.0486 16.1998 32.1145 17.1338 32.1145 18.2763C32.1145 19.4188 33.0486 20.3535 34.1911 20.3535C35.3336 20.3535 36.2683 19.4188 36.2683 18.2763C36.2683 17.1338 35.3336 16.1998 34.1911 16.1998ZM2.44282 16.281C1.30032 16.281 0.366364 17.2151 0.366364 18.3576C0.366364 19.5001 1.30032 20.4342 2.44282 20.4342C3.58535 20.4342 4.51942 19.5001 4.51942 18.3576C4.51942 17.215 3.58535 16.281 2.44282 16.281ZM15.1365 23.3926C15.0534 23.3938 14.9732 23.4225 14.9083 23.4744C14.8435 23.5262 14.7977 23.5982 14.7783 23.6789C14.7509 23.7518 14.7471 23.8314 14.7672 23.9066L14.7602 27.7297C13.4011 27.2134 12.1583 26.398 11.1489 25.3942C11.1453 25.3904 11.1416 25.3868 11.1378 25.3831C10.8003 25.0457 10.3551 24.8774 9.90997 24.8774C9.46485 24.8774 9.01998 25.0457 8.68254 25.3831C8.01402 26.0517 8.00808 27.1425 8.66399 27.819C8.66994 27.8256 8.67612 27.8321 8.68254 27.8383C11.1533 30.309 14.5871 31.8569 18.357 31.8569C20.8359 31.8569 23.1633 31.1956 25.1681 30.0397C25.2083 30.0164 25.2438 29.9857 25.2728 29.9494C25.3259 29.8904 25.3588 29.8161 25.3669 29.7372C25.375 29.6582 25.3577 29.5788 25.3177 29.5103L21.8756 23.6394C21.8415 23.5794 21.7915 23.53 21.7311 23.4967C21.6707 23.4633 21.6022 23.4474 21.5333 23.4505C21.4557 23.4541 21.3811 23.4818 21.3199 23.5297C20.4426 24.0187 19.4342 24.2981 18.357 24.2981C17.3047 24.2981 16.3175 24.0319 15.4546 23.5637C15.4202 23.5106 15.373 23.467 15.3172 23.4371C15.2615 23.4072 15.1997 23.3918 15.1365 23.3926ZM18.3576 32.1146C17.2151 32.1146 16.281 33.0486 16.281 34.1912C16.281 35.3337 17.2151 36.2682 18.3576 36.2682C19.5002 36.2682 20.4341 35.3337 20.4341 34.1912C20.4341 33.0486 19.5002 32.1146 18.3576 32.1146Z" fill="white"/>
</g>
</g>
<defs>
<clipPath id="clip0_424_15">
<rect width="36" height="36" fill="white"/>
</clipPath>
</defs>
</svg>
