<svg width="20" height="21" viewBox="0 0 20 21" fill="none" xmlns="http://www.w3.org/2000/svg">
<g id="Google__G__Logo 1" clip-path="url(#clip0_24_487)">
<g id="Group">
<path id="Vector" d="M10.2041 8.52271V12.5568H15.6958C15.4546 13.8542 14.731 14.9527 13.6456 15.6913L16.9573 18.3145C18.8868 16.4964 20 13.8259 20 10.6535C20 9.91488 19.9351 9.20458 19.8145 8.52282L10.2041 8.52271Z" fill="#4285F4"/>
<path id="Vector_2" d="M4.48499 12.3994L3.73808 12.9831L1.09424 15.0853C2.77328 18.4849 6.2146 20.8335 10.2035 20.8335C12.9585 20.8335 15.2683 19.9054 16.9567 18.3146L13.645 15.6914C12.7359 16.3164 11.5763 16.6952 10.2035 16.6952C7.5504 16.6952 5.29628 14.8676 4.48917 12.4054L4.48499 12.3994Z" fill="#34A853"/>
<path id="Vector_3" d="M1.09455 5.74805C0.398847 7.14951 0 8.73098 0 10.4166C0 12.1022 0.398847 13.6836 1.09455 15.0851C1.09455 15.0945 4.4898 12.3957 4.4898 12.3957C4.28572 11.7707 4.16509 11.1078 4.16509 10.4165C4.16509 9.72508 4.28572 9.06224 4.4898 8.43724L1.09455 5.74805Z" fill="#FBBC05"/>
<path id="Vector_4" d="M10.2037 4.14775C11.7065 4.14775 13.0423 4.67804 14.1091 5.70079L17.0311 2.71785C15.2593 1.03227 12.9588 0 10.2037 0C6.21481 0 2.77328 2.33902 1.09424 5.74815L4.48939 8.43756C5.29639 5.9754 7.55061 4.14775 10.2037 4.14775Z" fill="#EA4335"/>
</g>
</g>
<defs>
<clipPath id="clip0_24_487">
<rect width="20" height="20.8333" fill="white"/>
</clipPath>
</defs>
</svg>
