<svg width="36" height="36" viewBox="0 0 36 36" fill="none" xmlns="http://www.w3.org/2000/svg">
<g id="noun-safety-1222073 1">
<g id="Group">
<g id="Group_2">
<path id="Vector" d="M23.4006 20.1624C24.7766 20.1624 26.1372 20.5065 27.3353 21.1576C27.5529 21.2749 27.7526 21.4147 27.9564 21.5492C29.9228 17.7 30.9605 13.6289 30.9605 9.65737C30.9605 9.43417 30.9605 9.20377 30.9533 8.9734C30.9389 8.6494 30.7085 8.36859 30.3845 8.2966C26.0357 7.3462 22.0973 4.99178 19.0013 1.49259L18.5405 0.966964C18.4037 0.808585 18.2093 0.722188 18.0005 0.722188C17.7773 0.693404 17.6045 0.801378 17.4677 0.952594L16.7621 1.73021C13.8245 4.963 10.1237 7.19498 6.06291 8.18859L5.59489 8.30377C5.27809 8.37579 5.05489 8.6566 5.04769 8.98057C4.7885 19.1038 10.7645 26.383 13.3421 29.047C14.04 29.7635 14.818 30.4757 15.5579 31.0643C15.2804 30.2273 15.1206 29.3466 15.1206 28.4424C15.1206 23.8766 18.8349 20.1624 23.4006 20.1624Z" fill="white"/>
</g>
<g id="Group_3">
<path id="Vector_2" d="M26.6477 22.4231C25.6541 21.8831 24.5309 21.6023 23.4005 21.6023C19.6277 21.6023 16.5605 24.6695 16.5605 28.4423C16.5605 29.7167 16.9061 30.9623 17.5685 32.0279C18.8285 34.0655 21.0029 35.2823 23.4005 35.2823C27.1661 35.2823 30.2405 32.2151 30.2405 28.4423C30.2405 25.9223 28.8653 23.6183 26.6477 22.4231ZM26.9036 27.5316L21.5539 31.6948L19.7275 28.838C19.513 28.5029 19.6111 28.0579 19.9462 27.8438C20.2815 27.6293 20.727 27.7281 20.9404 28.0624L21.916 29.5882L26.019 26.3953C26.3323 26.151 26.7851 26.2069 27.0294 26.5212C27.2738 26.8351 27.2172 27.2876 26.9036 27.5316Z" fill="white"/>
</g>
</g>
</g>
</svg>
