<svg width="36" height="36" viewBox="0 0 36 36" fill="none" xmlns="http://www.w3.org/2000/svg">
<g id="noun-surf-1023643 1" clip-path="url(#clip0_424_6)">
<g id="Group">
<path id="Vector" fill-rule="evenodd" clip-rule="evenodd" d="M14.9929 5.51925C14.9929 4.09581 16.1471 2.94165 17.5705 2.94165C18.9943 2.94165 20.1481 4.09581 20.1481 5.51925C20.1481 6.94269 18.9943 8.09649 17.5705 8.09649C16.1471 8.09613 14.9929 6.94269 14.9929 5.51925ZM19.0742 26.6808C19.0742 26.6808 16.5085 29.4341 13.6256 29.4341L13.6656 26.5055C13.6656 26.5055 8.35596 27.1149 6.91452 25.6735L13.8881 23.4159C13.7286 23.1931 13.6332 22.9224 13.6332 22.6283V19.2875C13.6332 18.9426 13.7635 18.6114 13.999 18.3594L15.9714 16.2458V11.5341L13.5734 12.3333L11.6071 15.9643C11.4106 16.3279 11.0362 16.5342 10.6488 16.5342C10.4742 16.5342 10.2967 16.4917 10.1315 16.4024C9.60408 16.1162 9.4068 15.456 9.69336 14.9278L11.8652 10.9189C11.9966 10.6759 12.2155 10.4923 12.4772 10.4048C12.4772 10.4048 17.2141 8.84565 17.3315 8.84565H21.9899L25.6756 6.17805C26.1623 5.82561 26.8427 5.93505 27.1948 6.42141C27.5472 6.90849 27.4385 7.58853 26.9518 7.94061L22.9806 10.8149C22.7945 10.9491 22.5713 11.0215 22.3423 11.0215H20.2349V15.1208L23.0404 15.3426C23.4742 15.3771 23.8651 15.6165 24.0926 15.9877L26.2987 19.5884L35.6728 16.698C35.6731 16.6987 35.5774 22.6769 19.0742 26.6808ZM23.616 20.4164L22.1353 17.9997C22.1353 17.9997 18.5033 17.6869 18.3812 17.639C18.3614 17.6624 18.3463 17.6883 18.3262 17.7107L16.3537 19.8242V22.629C16.3537 22.6383 16.3512 22.6473 16.3512 22.6571L23.616 20.4164ZM34.6316 27.3396C32.4457 27.3396 31.3074 28.3613 30.3926 29.181C29.6251 29.8693 29.12 30.3236 27.9788 30.3236C26.8412 30.3236 26.3344 29.8693 25.5668 29.181C24.6521 28.3613 23.5141 27.3396 21.3282 27.3396C19.1405 27.3396 18.0025 28.3613 17.0874 29.181C16.3213 29.8693 15.8148 30.3236 14.6754 30.3236C13.5342 30.3236 13.0277 29.8693 12.262 29.181C11.3468 28.3609 10.2089 27.3396 8.02116 27.3396C5.83524 27.3396 4.69548 28.3609 3.78216 29.181C3.01464 29.8693 2.50812 30.3236 1.36728 30.3236C0.613077 30.3236 0.000717163 30.9356 0.000717163 31.6913C0.000717163 32.4465 0.613437 33.0589 1.36728 33.0589C3.555 33.0589 4.69296 32.0379 5.60772 31.2175C6.37524 30.5295 6.88212 30.0752 8.02152 30.0752C9.16092 30.0752 9.66924 30.5295 10.4353 31.2175C11.3504 32.0379 12.4898 33.0589 14.6758 33.0589C16.8617 33.0589 17.9996 32.0379 18.9148 31.2175C19.6826 30.5295 20.1888 30.0752 21.3286 30.0752C22.4676 30.0752 22.9745 30.5295 23.7402 31.2175C24.6557 32.0379 25.7933 33.0589 27.9792 33.0589C30.1669 33.0589 31.3049 32.0379 32.2196 31.2175C32.9857 30.5295 33.4926 30.0752 34.632 30.0752C35.388 30.0752 36.0004 29.4632 36.0004 28.7076C36.0004 27.9519 35.3876 27.3396 34.6316 27.3396Z" fill="white"/>
</g>
</g>
<defs>
<clipPath id="clip0_424_6">
<rect width="36" height="36" fill="white"/>
</clipPath>
</defs>
</svg>
