<svg width="36" height="36" viewBox="0 0 36 36" fill="none" xmlns="http://www.w3.org/2000/svg">
<g id="noun-tailored-5338446 1" clip-path="url(#clip0_424_18)">
<path id="Vector" d="M18 35.8415H17.9271C17.5714 35.8415 17.2843 35.5544 17.2843 35.1987C17.2843 34.843 17.5714 34.5558 17.9271 34.5558H18.0043C19.1014 34.5558 20.2029 34.4444 21.2786 34.2301C21.6257 34.1573 21.9643 34.3844 22.0371 34.7315C22.1057 35.0787 21.8829 35.4173 21.5357 35.4901C20.3786 35.7215 19.1914 35.8415 18.0043 35.8415H18ZM13.6929 35.2973C13.6414 35.2973 13.5857 35.2887 13.53 35.2758C12.3857 34.9801 11.2629 34.5644 10.2 34.0458C9.88285 33.8915 9.75 33.5058 9.90428 33.1844C10.0586 32.8673 10.4443 32.7344 10.7657 32.8887C11.7557 33.373 12.7929 33.7544 13.8557 34.0287C14.1986 34.1187 14.4043 34.4701 14.3186 34.813C14.2457 35.1044 13.9843 35.293 13.6971 35.293L13.6929 35.2973ZM25.4614 34.1401C25.2214 34.1401 24.9943 34.0073 24.8829 33.7758C24.7286 33.4544 24.8614 33.073 25.1829 32.9187C26.1686 32.443 27.1157 31.8644 27.9943 31.1958C28.2771 30.9815 28.68 31.0373 28.8943 31.3201C29.1086 31.603 29.0529 32.0058 28.77 32.2201C27.8229 32.9358 26.8071 33.5615 25.7443 34.0758C25.6543 34.1187 25.56 34.1401 25.4657 34.1401H25.4614ZM6.90428 31.7744C6.75857 31.7744 6.60857 31.723 6.48857 31.6244C5.58428 30.8573 4.75285 30.0001 4.01999 29.0744C3.80142 28.7958 3.84428 28.393 4.12285 28.1701C4.40142 27.9473 4.80428 27.9944 5.02714 28.273C5.70857 29.1344 6.47999 29.9315 7.31999 30.6387C7.58999 30.8701 7.62428 31.273 7.39714 31.543C7.26857 31.693 7.08857 31.7701 6.90428 31.7701V31.7744ZM31.44 29.3701C31.2986 29.3701 31.1571 29.323 31.0371 29.2287C30.7586 29.0058 30.7157 28.603 30.9386 28.3244C31.6243 27.463 32.2286 26.533 32.73 25.5601C32.8929 25.2473 33.2786 25.123 33.5957 25.2815C33.9129 25.4444 34.0371 25.8301 33.8743 26.1473C33.3343 27.1973 32.6829 28.2001 31.9414 29.1258C31.8129 29.2844 31.6286 29.3658 31.44 29.3658V29.3701ZM2.29714 25.663C2.05285 25.663 1.81714 25.5215 1.70999 25.2815C1.22571 24.2015 0.848566 23.0658 0.587137 21.913C0.509994 21.5658 0.728566 21.223 1.07142 21.1458C1.41857 21.0687 1.76142 21.2873 1.83857 21.6301C2.07857 22.7015 2.42999 23.7515 2.87999 24.7544C3.02571 25.0801 2.87999 25.4573 2.55857 25.603C2.47285 25.6415 2.38285 25.6587 2.29714 25.6587V25.663ZM34.7657 22.483C34.7186 22.483 34.6714 22.4787 34.62 22.4658C34.2729 22.3844 34.0586 22.0415 34.1357 21.6944C34.38 20.6273 34.5171 19.5301 34.5471 18.4244C34.5557 18.0687 34.8514 17.7773 35.2071 17.7987C35.5629 17.8073 35.8414 18.103 35.8329 18.4587C35.8029 19.6458 35.6529 20.833 35.3914 21.9815C35.3229 22.2773 35.0571 22.483 34.7657 22.483ZM0.805708 18.163C0.805708 18.163 0.792851 18.163 0.788566 18.163C0.432851 18.1544 0.15428 17.8587 0.162851 17.503C0.197137 16.3158 0.347137 15.133 0.612851 13.9801C0.69428 13.633 1.03714 13.4187 1.38428 13.5001C1.73142 13.5815 1.94571 13.9244 1.86428 14.2715C1.61571 15.3387 1.47857 16.4401 1.44857 17.5373C1.43999 17.8844 1.15285 18.163 0.805708 18.163ZM34.7743 14.8373C34.4786 14.8373 34.2171 14.6358 34.1486 14.3358C33.9043 13.2644 33.5529 12.2144 33.1029 11.2115C32.9571 10.8901 33.1029 10.5087 33.4243 10.363C33.75 10.2173 34.1271 10.363 34.2729 10.6844C34.7614 11.7644 35.1386 12.8958 35.4043 14.053C35.4814 14.4001 35.2671 14.743 34.92 14.8201C34.8729 14.833 34.8257 14.8373 34.7786 14.8373H34.7743ZM2.71714 10.7573C2.61857 10.7573 2.51571 10.7358 2.42142 10.6844C2.10428 10.5215 1.98428 10.1315 2.14714 9.81869C2.69142 8.76869 3.34285 7.77012 4.08428 6.84441C4.30714 6.56583 4.70999 6.52298 4.98857 6.74583C5.26714 6.96869 5.30999 7.37155 5.08714 7.65012C4.39714 8.50726 3.79285 9.43726 3.28714 10.4101C3.17142 10.633 2.94857 10.7573 2.71714 10.7573ZM31.4571 7.94155C31.2686 7.94155 31.08 7.86012 30.9557 7.69726C30.27 6.84012 29.4986 6.04298 28.6586 5.33583C28.3886 5.10869 28.3543 4.70155 28.5814 4.43155C28.8086 4.16155 29.2157 4.12726 29.4857 4.35441C30.39 5.11726 31.2214 5.97441 31.9629 6.90012C32.1857 7.17869 32.1386 7.58155 31.86 7.80441C31.74 7.89869 31.5986 7.94583 31.4614 7.94583L31.4571 7.94155ZM7.64999 4.91155C7.45714 4.91155 7.26428 4.82155 7.13571 4.65441C6.92142 4.37155 6.97714 3.96869 7.25999 3.75441C8.20714 3.03869 9.22714 2.41726 10.29 1.90726C10.6114 1.75298 10.9929 1.89012 11.1471 2.20726C11.3014 2.52441 11.1643 2.91012 10.8471 3.06441C9.85714 3.54012 8.91 4.11869 8.03571 4.77869C7.91999 4.86441 7.78285 4.90726 7.64999 4.90726V4.91155ZM25.4829 3.15869C25.3886 3.15869 25.2943 3.13726 25.2043 3.09441C24.2143 2.61441 23.1729 2.23298 22.1143 1.95869C21.7714 1.86869 21.5614 1.52155 21.6514 1.17441C21.7414 0.831548 22.0886 0.621549 22.4357 0.711549C23.58 1.00726 24.7029 1.41869 25.77 1.93298C26.0914 2.08726 26.2243 2.47298 26.0657 2.79012C25.9543 3.01726 25.7271 3.15441 25.4871 3.15441L25.4829 3.15869ZM14.6229 1.77441C14.3229 1.77441 14.0529 1.56441 13.9929 1.25583C13.9243 0.908692 14.1514 0.57012 14.4986 0.501549C15.6429 0.274406 16.8171 0.158691 17.9957 0.158691C18.3514 0.158691 18.6557 0.445834 18.6557 0.801548C18.6557 1.15726 18.3857 1.44441 18.03 1.44441H17.9957C16.9029 1.44441 15.8143 1.55155 14.7514 1.76155C14.7086 1.77012 14.6657 1.77441 14.6271 1.77441H14.6229ZM13.9114 20.3915C13.02 19.3758 12.5229 18.073 12.5229 16.693C12.5229 13.5987 15.0386 11.083 18.1286 11.083C21.2186 11.083 23.7343 13.5987 23.7343 16.693C23.7343 18.133 23.1986 19.4744 22.2429 20.503C24 21.6044 25.2729 23.3658 25.7743 25.3801C27.6 23.4558 28.7229 20.8587 28.7229 18.0001C28.7229 12.0815 23.9057 7.26441 17.9829 7.26441C12.06 7.26441 7.24285 12.0815 7.24285 18.0001C7.24285 20.8544 8.36571 23.4515 10.1914 25.3758C10.7057 23.2844 12.0471 21.4801 13.9029 20.3873L13.9114 20.3915ZM20.8757 21.2144L19.92 20.7644L20.76 20.1215C21.8357 19.2987 22.4529 18.0515 22.4529 16.693C22.4529 14.3101 20.5157 12.3687 18.1329 12.3687C15.75 12.3687 13.8129 14.3101 13.8129 16.693C13.8129 18.0044 14.3957 19.2258 15.4157 20.053L16.2343 20.7173L15.2657 21.1415C13.1229 22.0801 11.6314 24.0815 11.3186 26.4001C13.1529 27.8615 15.4757 28.7401 17.9957 28.7401C20.5157 28.7401 22.8386 27.8658 24.6729 26.4044C24.3643 24.1587 22.9286 22.1873 20.88 21.2187L20.8757 21.2144ZM6.96428 9.78869V5.52441C6.96428 5.16869 6.67714 4.88155 6.32142 4.88155H2.06142C1.70571 4.88155 1.41857 5.16869 1.41857 5.52441C1.41857 5.88012 1.70571 6.16726 2.06142 6.16726H5.67857V9.78869C5.67857 10.1444 5.96571 10.4315 6.32142 10.4315C6.67714 10.4315 6.96428 10.1444 6.96428 9.78869ZM34.7014 30.4801C34.7014 30.1244 34.4143 29.8373 34.0586 29.8373H30.4414V26.2158C30.4414 25.8601 30.1543 25.573 29.7986 25.573C29.4429 25.573 29.1557 25.8601 29.1557 26.2158V30.4801C29.1557 30.8358 29.4429 31.123 29.7986 31.123H34.0586C34.4143 31.123 34.7014 30.8358 34.7014 30.4801Z" fill="white"/>
</g>
<defs>
<clipPath id="clip0_424_18">
<rect width="36" height="36" fill="white"/>
</clipPath>
</defs>
</svg>
