<svg width="20" height="24" viewBox="0 0 20 24" fill="none" xmlns="http://www.w3.org/2000/svg">
<g id="tiktok-icon-2 1">
<g id="Group">
<path id="Vector" d="M7.88914 10.1781V9.34286C7.60106 9.29695 7.31009 9.2718 7.01844 9.26759C4.1949 9.26153 1.69515 11.1031 0.847245 13.8137C-0.000665069 16.5242 1.00019 19.4749 3.3178 21.0979C2.46793 20.1825 1.89948 19.039 1.68107 17.8056C1.46265 16.5722 1.60362 15.3015 2.08694 14.1469C2.57026 12.9924 3.37528 12.0033 4.40482 11.2991C5.43437 10.5948 6.64443 10.2056 7.88896 10.1782L7.88914 10.1781Z" fill="#25F4EE"/>
<path id="Vector_2" d="M8.04495 19.6397C9.62361 19.6376 10.9212 18.3859 10.9904 16.7985V2.63371H13.5615C13.509 2.33772 13.484 2.03747 13.4867 1.73682L9.96992 1.73682V15.888C9.91143 17.4834 8.6107 18.7471 7.0245 18.7497C6.55049 18.7456 6.08421 18.6283 5.66406 18.4074C5.93637 18.7871 6.29398 19.0966 6.70774 19.3108C7.1215 19.525 7.57969 19.6377 8.04495 19.6397ZM18.364 7.43968V6.65237C17.4177 6.65274 16.4924 6.37172 15.7043 5.84458C16.3952 6.65293 17.3288 7.21286 18.364 7.43968Z" fill="#25F4EE"/>
</g>
<path id="Vector_3" d="M15.7058 5.84474C14.9294 4.95497 14.5014 3.81114 14.5018 2.62695H13.563C13.6842 3.28168 13.9368 3.90467 14.3052 4.4579C14.6736 5.01114 15.1502 5.48302 15.7058 5.84474ZM7.01921 12.8074C6.36079 12.8107 5.72239 13.0355 5.2055 13.446C4.68861 13.8565 4.3229 14.4291 4.16651 15.0728C4.01013 15.7166 4.07204 16.3944 4.34241 16.9986C4.61278 17.6029 5.07609 18.0988 5.65867 18.4076C5.34015 17.9649 5.1494 17.4423 5.1075 16.8974C5.06561 16.3525 5.1742 15.8065 5.42127 15.3198C5.66835 14.8331 6.04429 14.4247 6.50756 14.1395C6.97084 13.8544 7.50341 13.7037 8.04644 13.7041C8.34165 13.708 8.63481 13.7543 8.91705 13.8415V10.24C8.62882 10.1965 8.33788 10.1736 8.04644 10.1716H7.88991V12.91C7.60617 12.8334 7.31286 12.7988 7.01921 12.8074Z" fill="#FE2C55"/>
<path id="Vector_4" d="M18.3653 7.43994V10.1785C16.6135 10.175 14.9071 9.61697 13.488 8.58328V15.7787C13.4805 19.3691 10.5864 22.2758 7.01901 22.2758C5.6941 22.2782 4.40109 21.8668 3.31836 21.0982C4.20126 22.054 5.34968 22.72 6.61404 23.0095C7.87839 23.299 9.20006 23.1986 10.4069 22.7214C11.6138 22.2441 12.6498 21.4122 13.3802 20.3338C14.1105 19.2555 14.5013 17.9808 14.5016 16.6758V9.50074C15.9255 10.5276 17.6339 11.0784 19.3856 11.0754V7.54923C19.0427 7.5482 18.7007 7.51158 18.3653 7.43994Z" fill="#FE2C55"/>
<path id="Vector_5" d="M13.4875 15.7786V8.58319C14.9109 9.61099 16.6196 10.1619 18.3715 10.1578V7.41937C17.3365 7.19939 16.4007 6.64674 15.705 5.84474C15.1494 5.48302 14.6729 5.01114 14.3044 4.4579C13.936 3.90467 13.6835 3.28168 13.5622 2.62695H10.9911V16.7989C10.9661 17.4158 10.7507 18.0095 10.375 18.4975C9.99927 18.9856 9.48182 19.3437 8.89457 19.5221C8.30731 19.7005 7.67941 19.6904 7.09813 19.4932C6.51685 19.2959 6.01106 18.9213 5.65105 18.4214C5.06836 18.1127 4.60496 17.6168 4.33452 17.0125C4.06408 16.4082 4.00213 15.7303 4.15853 15.0865C4.31493 14.4427 4.68069 13.8701 5.19765 13.4596C5.71461 13.0491 6.3531 12.8243 7.01158 12.821C7.3069 12.8237 7.60025 12.8698 7.88229 12.958V10.2194C6.63107 10.2408 5.41306 10.6281 4.37676 11.3341C3.34047 12.0401 2.53066 13.0343 2.04608 14.1955C1.5615 15.3567 1.42309 16.6348 1.64771 17.8738C1.87234 19.1128 2.4503 20.2593 3.31113 21.1734C4.4045 21.9166 5.69934 22.3016 7.01846 22.2757C10.5858 22.2757 13.4799 19.369 13.4875 15.7786Z" fill="black"/>
</g>
</svg>
